<svg width="422" height="353" viewBox="0 0 422 353" fill="none" xmlns="http://www.w3.org/2000/svg">
<g opacity="0.5">
<path d="M285.07 21.48H67.0098V23.76H285.07V21.48Z" fill="white"/>
<path d="M285.07 47.53H67.0098V49.81H285.07V47.53Z" fill="white"/>
<path d="M285.07 73.5901H67.0098V75.8701H285.07V73.5901Z" fill="white"/>
<path d="M285.07 99.6399H67.0098V101.92H285.07V99.6399Z" fill="white"/>
<path d="M285.07 125.69H67.0098V127.97H285.07V125.69Z" fill="white"/>
<path d="M285.07 151.75H67.0098V154.03H285.07V151.75Z" fill="white"/>
<path d="M285.07 177.8H67.0098V180.08H285.07V177.8Z" fill="white"/>
<path d="M285.07 203.86H67.0098V206.14H285.07V203.86Z" fill="white"/>
<path d="M267.509 0H265.229V224.3H267.509V0Z" fill="white"/>
<path d="M241.45 0H239.17V224.3H241.45V0Z" fill="white"/>
<path d="M215.4 0H213.12V224.3H215.4V0Z" fill="white"/>
<path d="M189.35 0H187.07V224.3H189.35V0Z" fill="white"/>
<path d="M163.29 0H161.01V224.3H163.29V0Z" fill="white"/>
<path d="M137.24 0H134.96V224.3H137.24V0Z" fill="white"/>
<path d="M111.19 0H108.91V224.3H111.19V0Z" fill="white"/>
<path d="M85.1296 0H82.8496V224.3H85.1296V0Z" fill="white"/>
</g>
<path d="M410.36 91H73.66C67.7726 91 63 95.7726 63 101.66V300.6C63 306.487 67.7726 311.26 73.66 311.26H410.36C416.247 311.26 421.02 306.487 421.02 300.6V101.66C421.02 95.7726 416.247 91 410.36 91Z" fill="#1D1E26"/>
<path d="M410.36 91H73.66C67.7726 91 63 95.7726 63 101.66V300.6C63 306.487 67.7726 311.26 73.66 311.26H410.36C416.247 311.26 421.02 306.487 421.02 300.6V101.66C421.02 95.7726 416.247 91 410.36 91Z" fill="#3D71FF" fill-opacity="0.2"/>
<path d="M392.87 71.27H56.1698C50.2824 71.27 45.5098 76.0427 45.5098 81.93V280.87C45.5098 286.757 50.2824 291.53 56.1698 291.53H392.87C398.757 291.53 403.53 286.757 403.53 280.87V81.93C403.53 76.0427 398.757 71.27 392.87 71.27Z" fill="#5B81E9"/>
<path d="M392.87 71.27H56.1698C50.2824 71.27 45.5098 76.0427 45.5098 81.93V280.87C45.5098 286.757 50.2824 291.53 56.1698 291.53H392.87C398.757 291.53 403.53 286.757 403.53 280.87V81.93C403.53 76.0427 398.757 71.27 392.87 71.27Z" fill="#5B81E9"/>
<path d="M56.1703 71.27H392.87C395.697 71.27 398.409 72.3931 400.408 74.3923C402.407 76.3914 403.53 79.1028 403.53 81.93V86H45.5303V81.93C45.5303 79.1063 46.6506 76.3979 48.6454 74.3993C50.6403 72.4008 53.3465 71.2753 56.1703 71.27Z" fill="#5B81E9"/>
<path opacity="0.7" d="M56.1703 71.27H392.87C395.697 71.27 398.409 72.3931 400.408 74.3923C402.407 76.3914 403.53 79.1028 403.53 81.93V86H45.5303V81.93C45.5303 79.1063 46.6506 76.3979 48.6454 74.3993C50.6403 72.4008 53.3465 71.2753 56.1703 71.27Z" fill="#1D1E26"/>
<path d="M22.0752 194.501L11 182.565L22.0752 170.516H33.6893L22.6141 182.565L33.6893 194.501H22.0752Z" fill="#FFFE54"/>
<path d="M57.5353 150L42.9394 211.8H33.9854L48.5813 150.035L57.5353 150Z" fill="#FFFE54"/>
<path d="M57.5352 170.516H69.1493L80.2244 182.565L69.1493 194.501H57.5352L68.6103 182.565L57.5352 170.516Z" fill="#FFFE54"/>
<path d="M56.8999 82.6099C58.6838 82.6099 60.1299 81.1638 60.1299 79.3799C60.1299 77.596 58.6838 76.1499 56.8999 76.1499C55.116 76.1499 53.6699 77.596 53.6699 79.3799C53.6699 81.1638 55.116 82.6099 56.8999 82.6099Z" fill="#FD5C39"/>
<path d="M65.8902 82.6099C67.674 82.6099 69.1202 81.1638 69.1202 79.3799C69.1202 77.596 67.674 76.1499 65.8902 76.1499C64.1063 76.1499 62.6602 77.596 62.6602 79.3799C62.6602 81.1638 64.1063 82.6099 65.8902 82.6099Z" fill="#FFFE54"/>
<path d="M74.8902 82.6099C76.674 82.6099 78.1202 81.1638 78.1202 79.3799C78.1202 77.596 76.674 76.1499 74.8902 76.1499C73.1063 76.1499 71.6602 77.596 71.6602 79.3799C71.6602 81.1638 73.1063 82.6099 74.8902 82.6099Z" fill="#00CFBE"/>
<path opacity="0.5" d="M157.34 57.3999H312.53V86V295.45H141V73.7299C141 71.5846 141.423 69.4603 142.244 67.4784C143.065 65.4965 144.269 63.6958 145.786 62.1793C147.304 60.6628 149.105 59.4601 151.088 58.6401C153.07 57.82 155.195 57.3986 157.34 57.3999Z" fill="#2D4893"/>
<path d="M299.53 43H144.34C142.195 42.9987 140.07 43.4201 138.088 44.2402C136.105 45.0602 134.304 46.2629 132.786 47.7794C131.269 49.2959 130.065 51.0966 129.244 53.0785C128.423 55.0604 128 57.1847 128 59.33V281.05H299.53V71.5H305.39H311.25V43H299.53Z" fill="white"/>
<path d="M311.16 42.6001C314.266 42.6001 317.244 43.8338 319.44 46.0299C321.636 48.2259 322.87 51.2044 322.87 54.3101V71.8901H299.45V54.3201C299.449 52.7815 299.751 51.2577 300.339 49.8358C300.927 48.4139 301.789 47.1218 302.876 46.0334C303.964 44.945 305.255 44.0815 306.677 43.4924C308.098 42.9033 309.622 42.6001 311.16 42.6001Z" fill="#5B81E9"/>
<path opacity="0.5" d="M311.16 42.6001C314.266 42.6001 317.244 43.8338 319.44 46.0299C321.636 48.2259 322.87 51.2044 322.87 54.3101V71.8901H299.45V54.3201C299.449 52.7815 299.751 51.2577 300.339 49.8358C300.927 48.4139 301.789 47.1218 302.876 46.0334C303.964 44.945 305.255 44.0815 306.677 43.4924C308.098 42.9033 309.622 42.6001 311.16 42.6001Z" fill="#1D1E26"/>
<path d="M274.74 81.72H201.44V82.72H274.74V81.72Z" fill="#1D1E26"/>
<path d="M231.31 92.52H201.44V93.52H231.31V92.52Z" fill="#1D1E26"/>
<path d="M231.31 114.47H201.44V115.47H231.31V114.47Z" fill="#1D1E26"/>
<path d="M285.08 92.52H238.09V93.52H285.08V92.52Z" fill="#1D1E26"/>
<path d="M285.07 103.49H201.44V104.49H285.07V103.49Z" fill="#1D1E26"/>
<path d="M195.47 129.94H142.24V130.94H195.47V129.94Z" fill="#1D1E26"/>
<path d="M195.47 140.74H142.24V141.74H195.47V140.74Z" fill="#1D1E26"/>
<path d="M195.47 151.72H142.24V152.72H195.47V151.72Z" fill="#1D1E26"/>
<path d="M254.67 129.94H201.44V130.94H254.67V129.94Z" fill="#1D1E26"/>
<path d="M281.62 129.94H262.99V130.94H281.62V129.94Z" fill="#1D1E26"/>
<path d="M281.61 140.74H201.44V141.74H281.61V140.74Z" fill="#1D1E26"/>
<path d="M267.13 151.72H201.44V152.72H267.13V151.72Z" fill="#1D1E26"/>
<path d="M281.61 167.35H201.44V168.35H281.61V167.35Z" fill="#1D1E26"/>
<path d="M281.61 178.33H201.44V179.33H281.61V178.33Z" fill="#1D1E26"/>
<path d="M281.61 189.3H201.44V190.3H281.61V189.3Z" fill="#1D1E26"/>
<path d="M281.61 200.28H201.44V201.28H281.61V200.28Z" fill="#1D1E26"/>
<path d="M256 224.23H201.44V225.23H256V224.23Z" fill="#1D1E26"/>
<path d="M281.61 235.2H201.44V236.2H281.61V235.2Z" fill="#1D1E26"/>
<path d="M249.35 211.26H201.44V212.26H249.35V211.26Z" fill="#1D1E26"/>
<path d="M205.78 262.64C207.067 262.64 208.11 261.597 208.11 260.31C208.11 259.023 207.067 257.98 205.78 257.98C204.493 257.98 203.45 259.023 203.45 260.31C203.45 261.597 204.493 262.64 205.78 262.64Z" fill="#1D1E26"/>
<path d="M215.06 262.64C216.347 262.64 217.39 261.597 217.39 260.31C217.39 259.023 216.347 257.98 215.06 257.98C213.774 257.98 212.73 259.023 212.73 260.31C212.73 261.597 213.774 262.64 215.06 262.64Z" fill="#1D1E26"/>
<path d="M224.34 262.64C225.627 262.64 226.67 261.597 226.67 260.31C226.67 259.023 225.627 257.98 224.34 257.98C223.053 257.98 222.01 259.023 222.01 260.31C222.01 261.597 223.053 262.64 224.34 262.64Z" fill="#1D1E26"/>
<path d="M197.88 164.43H102.27V242.28H197.88V164.43Z" fill="white"/>
<path opacity="0.5" d="M190.89 170.13H109.26V236.6H190.89V170.13Z" fill="#FD5C39"/>
<path d="M163.5 195.5C167.404 195.5 170.57 192.335 170.57 188.43C170.57 184.525 167.404 181.36 163.5 181.36C159.595 181.36 156.43 184.525 156.43 188.43C156.43 192.335 159.595 195.5 163.5 195.5Z" fill="#FD5C39"/>
<path d="M109.22 236.59L138.27 199.29L155.95 223.16L167.31 211.6L190.89 236.59H109.22Z" fill="#FD5C39"/>
<path opacity="0.1" d="M102.27 253.11L200.3 242.28H102.27V253.11Z" fill="#1D1E26"/>
<path d="M181.9 79.53V86.4H172.2V115.23H163.52V86.4H153.92V79.53H181.9Z" fill="#FD5C39"/>
<path d="M376.49 336.3C378.133 334.937 380.228 334.241 382.36 334.35C384.557 334.392 386.747 334.609 388.91 335C391.358 335.431 393.835 335.672 396.32 335.72C399.148 335.741 401.96 335.291 404.64 334.39C407.013 333.608 409.223 332.398 411.16 330.82C412.776 329.537 414.058 327.884 414.9 326H415.84V337.52C415.059 339.004 414.046 340.355 412.84 341.52C411.067 343.185 408.989 344.492 406.72 345.37C403.662 346.57 400.394 347.145 397.11 347.06C394.622 347.004 392.142 346.763 389.69 346.34C387.505 345.932 385.292 345.691 383.07 345.62C381.21 345.585 379.393 346.184 377.92 347.32C376.45 348.44 375.67 350.32 375.58 352.82H371.26C371.21 350.28 370.44 348.44 368.95 347.32C367.464 346.187 365.639 345.588 363.77 345.62C361.548 345.69 359.335 345.931 357.15 346.34C354.698 346.762 352.218 347.003 349.73 347.06C346.446 347.145 343.178 346.571 340.12 345.37C337.849 344.497 335.77 343.189 334 341.52C332.791 340.357 331.778 339.007 331 337.52V326.04H332.01C332.848 327.926 334.132 329.58 335.75 330.86C337.687 332.438 339.897 333.648 342.27 334.43C344.947 335.331 347.755 335.78 350.58 335.76C353.114 335.709 355.641 335.468 358.14 335.04C360.278 334.643 362.446 334.426 364.62 334.39C369.473 334.39 372.403 337.057 373.41 342.39H373.55C373.825 340.089 374.86 337.946 376.49 336.3Z" fill="#00CFBE"/>
</svg>
