<svg width="458" height="291" viewBox="0 0 458 291" fill="none" xmlns="http://www.w3.org/2000/svg">
<path d="M412.36 59H75.66C69.7726 59 65 63.7726 65 69.66V268.6C65 274.487 69.7726 279.26 75.66 279.26H412.36C418.247 279.26 423.02 274.487 423.02 268.6V69.66C423.02 63.7726 418.247 59 412.36 59Z" fill="#1D1E26"/>
<path d="M412.36 59H75.66C69.7726 59 65 63.7726 65 69.66V268.6C65 274.487 69.7726 279.26 75.66 279.26H412.36C418.247 279.26 423.02 274.487 423.02 268.6V69.66C423.02 63.7726 418.247 59 412.36 59Z" fill="#3D71FF" fill-opacity="0.2"/>
<g opacity="0.5">
<path d="M219.06 21.48H1V23.76H219.06V21.48Z" fill="white"/>
<path d="M219.06 47.5303H1V49.8103H219.06V47.5303Z" fill="white"/>
<path d="M219.06 73.5898H1V75.8699H219.06V73.5898Z" fill="white"/>
<path d="M219.06 99.6396H1V101.92H219.06V99.6396Z" fill="white"/>
<path d="M219.06 125.69H1V127.97H219.06V125.69Z" fill="white"/>
<path d="M219.06 151.75H1V154.03H219.06V151.75Z" fill="white"/>
<path d="M219.06 177.8H1V180.08H219.06V177.8Z" fill="white"/>
<path d="M219.06 203.86H1V206.14H219.06V203.86Z" fill="white"/>
<path d="M201.5 0H199.22V224.3H201.5V0Z" fill="white"/>
<path d="M175.44 0H173.16V224.3H175.44V0Z" fill="white"/>
<path d="M149.39 0H147.11V224.3H149.39V0Z" fill="white"/>
<path d="M123.341 0H121.061V224.3H123.341V0Z" fill="white"/>
<path d="M97.28 0H95V224.3H97.28V0Z" fill="white"/>
<path d="M71.2302 0H68.9502V224.3H71.2302V0Z" fill="white"/>
<path d="M45.1804 0H42.9004V224.3H45.1804V0Z" fill="white"/>
<path d="M19.1198 0H16.8398V224.3H19.1198V0Z" fill="white"/>
</g>
<path d="M389.51 41H52.8104C46.923 41 42.1504 45.7726 42.1504 51.66V250.6C42.1504 256.487 46.923 261.26 52.8104 261.26H389.51C395.398 261.26 400.17 256.487 400.17 250.6V51.66C400.17 45.7726 395.398 41 389.51 41Z" fill="#5B81E9"/>
<path d="M389.51 43.5H52.8104C48.3037 43.5 44.6504 47.1534 44.6504 51.66V250.6C44.6504 255.107 48.3037 258.76 52.8104 258.76H389.51C394.017 258.76 397.67 255.107 397.67 250.6V51.66C397.67 47.1534 394.017 43.5 389.51 43.5Z" fill="white"/>
<path d="M389.51 46C391.011 46.0027 392.449 46.5998 393.51 47.6607C394.571 48.7216 395.168 50.1597 395.17 51.66V250.6C395.168 252.1 394.571 253.538 393.51 254.599C392.449 255.66 391.011 256.257 389.51 256.26H52.8104C51.3101 256.257 49.872 255.66 48.8111 254.599C47.7502 253.538 47.153 252.1 47.1504 250.6V51.66C47.153 50.1597 47.7502 48.7216 48.8111 47.6607C49.872 46.5998 51.3101 46.0027 52.8104 46H389.51ZM389.51 41H52.8104C49.9832 41 47.2718 42.1231 45.2726 44.1222C43.2735 46.1214 42.1504 48.8328 42.1504 51.66V250.6C42.1504 253.427 43.2735 256.139 45.2726 258.138C47.2718 260.137 49.9832 261.26 52.8104 261.26H389.51C392.334 261.255 395.04 260.129 397.035 258.131C399.03 256.132 400.15 253.424 400.15 250.6V51.66C400.15 48.8328 399.027 46.1214 397.028 44.1222C395.029 42.1231 392.318 41 389.49 41H389.51Z" fill="#5B81E9"/>
<path d="M52.8099 41H389.51C392.337 41 395.049 42.1231 397.048 44.1222C399.047 46.1214 400.17 48.8328 400.17 51.66V55.74H42.1699V51.66C42.1699 48.8363 43.2903 46.1279 45.2851 44.1293C47.2799 42.1307 49.9862 41.0053 52.8099 41V41Z" fill="#5B81E9"/>
<path opacity="0.7" d="M52.8099 41H389.51C392.337 41 395.049 42.1231 397.048 44.1222C399.047 46.1214 400.17 48.8328 400.17 51.66V55.74H42.1699V51.66C42.1699 48.8363 43.2903 46.1279 45.2851 44.1293C47.2799 42.1307 49.9862 41.0053 52.8099 41V41Z" fill="#2E2F35"/>
<path d="M53.5396 52.3399C55.3234 52.3399 56.7696 50.8938 56.7696 49.1099C56.7696 47.326 55.3234 45.8799 53.5396 45.8799C51.7557 45.8799 50.3096 47.326 50.3096 49.1099C50.3096 50.8938 51.7557 52.3399 53.5396 52.3399Z" fill="#FD5C39"/>
<path d="M62.5298 52.3399C64.3137 52.3399 65.7598 50.8938 65.7598 49.1099C65.7598 47.326 64.3137 45.8799 62.5298 45.8799C60.7459 45.8799 59.2998 47.326 59.2998 49.1099C59.2998 50.8938 60.7459 52.3399 62.5298 52.3399Z" fill="#FFFE54"/>
<path d="M71.5298 52.3399C73.3137 52.3399 74.7598 50.8938 74.7598 49.1099C74.7598 47.326 73.3137 45.8799 71.5298 45.8799C69.7459 45.8799 68.2998 47.326 68.2998 49.1099C68.2998 50.8938 69.7459 52.3399 71.5298 52.3399Z" fill="#00CFBE"/>
<path d="M377.23 125.12H290.92V224.45H377.23V125.12Z" fill="#F9F9F9"/>
<path opacity="0.2" d="M370.91 132.39H297.23V217.19H370.91V132.39Z" fill="#00CFBE"/>
<path d="M316.229 164.34V202.34H351.52V164.34L356.45 169.27L365.45 162.27L357.58 153.5C355.81 151.523 353.642 149.942 351.22 148.86C348.797 147.778 346.173 147.219 343.52 147.22C342.836 149.205 341.557 150.93 339.857 152.16C338.156 153.391 336.118 154.067 334.019 154.097C331.921 154.126 329.864 153.508 328.13 152.325C326.396 151.143 325.069 149.455 324.33 147.49L324.229 147.22H323.95C321.181 147.22 318.447 147.829 315.94 149.002C313.432 150.175 311.213 151.885 309.44 154.01L302.77 162.01L311.339 169.01L316.229 164.34Z" fill="white"/>
<path d="M362.59 159.12L353.49 166.3L356.46 169.27L365.41 162.27L362.59 159.12Z" fill="#00CFBE"/>
<path d="M305.43 158.78L314.54 165.95L311.3 169.01L302.74 162L305.43 158.78Z" fill="#00CFBE"/>
<path d="M334.82 164.98L337.26 169.93C337.32 170.05 337.409 170.154 337.519 170.233C337.629 170.311 337.756 170.362 337.89 170.38L343.34 171.18C343.495 171.2 343.641 171.263 343.761 171.363C343.882 171.462 343.972 171.594 344.021 171.742C344.07 171.891 344.076 172.05 344.039 172.201C344.001 172.353 343.922 172.491 343.81 172.6L339.81 176.45C339.712 176.542 339.638 176.657 339.596 176.784C339.554 176.912 339.545 177.048 339.57 177.18L340.5 182.62C340.528 182.774 340.512 182.932 340.454 183.077C340.396 183.223 340.298 183.348 340.171 183.44C340.045 183.532 339.895 183.587 339.739 183.597C339.583 183.608 339.427 183.574 339.29 183.5L334.41 180.93C334.29 180.866 334.156 180.833 334.02 180.833C333.884 180.833 333.75 180.866 333.63 180.93L328.75 183.5C328.612 183.57 328.457 183.601 328.303 183.588C328.148 183.576 328.001 183.521 327.875 183.43C327.75 183.339 327.653 183.215 327.593 183.072C327.534 182.929 327.516 182.773 327.54 182.62L328.47 177.18C328.494 177.048 328.485 176.912 328.443 176.784C328.401 176.657 328.328 176.542 328.23 176.45L324.29 172.6C324.178 172.492 324.098 172.355 324.06 172.204C324.022 172.053 324.028 171.894 324.076 171.746C324.124 171.598 324.212 171.466 324.331 171.366C324.451 171.266 324.595 171.202 324.75 171.18L330.2 170.38C330.333 170.362 330.461 170.311 330.57 170.233C330.68 170.154 330.769 170.05 330.83 169.93L333.27 164.98C333.334 164.827 333.441 164.696 333.579 164.605C333.717 164.513 333.879 164.464 334.045 164.464C334.21 164.464 334.372 164.513 334.51 164.605C334.648 164.696 334.756 164.827 334.82 164.98Z" fill="#00CFBE"/>
<path d="M426.39 147.08H329.4C326.087 147.08 323.4 149.766 323.4 153.08V209.3C323.4 212.614 326.087 215.3 329.4 215.3H426.39C429.704 215.3 432.39 212.614 432.39 209.3V153.08C432.39 149.766 429.704 147.08 426.39 147.08Z" fill="#FD5C39"/>
<path d="M421.15 167.4H419C418.87 167.4 418.82 167.4 418.79 167.23C418.72 166.85 418.63 166.47 418.56 166.08C418.56 165.96 418.48 165.92 418.36 165.93H415.43C415.29 165.93 415.24 165.99 415.2 166.11C415.07 166.5 414.93 166.89 414.78 167.27C414.767 167.305 414.746 167.336 414.718 167.36C414.69 167.385 414.656 167.402 414.62 167.41H412.15C412.147 167.36 412.147 167.31 412.15 167.26L415.85 158.41C415.928 158.157 416.092 157.939 416.312 157.791C416.532 157.644 416.796 157.576 417.06 157.6C417.69 157.6 418.31 157.6 418.93 157.6C419.08 157.6 419.14 157.6 419.17 157.79C419.72 160.45 420.28 163.1 420.83 165.79C420.93 166.27 421.04 166.79 421.14 167.23C421.15 167.2 421.15 167.27 421.15 167.4ZM417.35 160.3L416.04 163.92H418.15L417.35 160.3Z" fill="white"/>
<path d="M401.71 157.56C401.64 157.73 401.58 157.89 401.51 158.05C400.23 161.097 398.956 164.144 397.69 167.19C397.672 167.244 397.636 167.29 397.589 167.321C397.542 167.351 397.486 167.365 397.43 167.36C396.67 167.36 395.91 167.36 395.15 167.36C394.98 167.36 394.91 167.31 394.87 167.15C394.22 164.61 393.56 162.08 392.87 159.55C392.837 159.325 392.743 159.112 392.599 158.936C392.454 158.76 392.264 158.626 392.05 158.55C391.36 158.31 390.669 158.08 389.969 157.86C389.905 157.834 389.838 157.814 389.77 157.8C389.77 157.58 389.84 157.52 390.05 157.52H394.05C394.342 157.502 394.629 157.596 394.856 157.781C395.082 157.966 395.23 158.23 395.27 158.52C395.62 160.31 395.95 162.11 396.27 163.9C396.27 163.97 396.27 164.05 396.33 164.18C396.33 164.08 396.4 164.03 396.42 163.98L398.91 157.69C398.91 157.62 399.029 157.53 399.089 157.53H401.52L401.71 157.56Z" fill="white"/>
<path d="M412.7 157.79L412.27 159.79C411.87 159.68 411.49 159.54 411.1 159.46C410.585 159.325 410.045 159.325 409.53 159.46C409.292 159.526 409.07 159.642 408.88 159.8C408.815 159.853 408.763 159.919 408.727 159.994C408.691 160.069 408.673 160.152 408.673 160.235C408.673 160.318 408.691 160.401 408.727 160.476C408.763 160.551 408.815 160.618 408.88 160.67C409.128 160.879 409.396 161.063 409.68 161.22C410.1 161.48 410.55 161.69 410.95 161.96C411.317 162.187 411.625 162.498 411.848 162.867C412.071 163.236 412.204 163.653 412.235 164.083C412.267 164.514 412.195 164.945 412.028 165.343C411.86 165.74 411.6 166.092 411.27 166.37C410.592 166.942 409.754 167.292 408.87 167.37C407.653 167.538 406.414 167.422 405.25 167.03L405 166.93L405.46 164.78L405.73 164.9C406.52 165.291 407.402 165.457 408.28 165.38C408.579 165.347 408.87 165.263 409.14 165.13C409.264 165.077 409.372 164.992 409.451 164.884C409.531 164.776 409.58 164.648 409.594 164.514C409.607 164.38 409.584 164.244 409.527 164.122C409.47 164 409.381 163.896 409.27 163.82C408.977 163.612 408.669 163.425 408.35 163.26C407.9 162.97 407.41 162.73 406.99 162.4C406.707 162.173 406.476 161.887 406.312 161.562C406.149 161.238 406.057 160.882 406.043 160.519C406.028 160.156 406.092 159.794 406.23 159.458C406.367 159.122 406.575 158.819 406.84 158.57C407.487 157.932 408.321 157.519 409.22 157.39C410.395 157.212 411.596 157.35 412.7 157.79Z" fill="white"/>
<path d="M405.35 157.54C405.16 158.41 404.98 159.25 404.8 160.1C404.3 162.433 403.803 164.766 403.31 167.1C403.31 167.29 403.2 167.35 403.01 167.35H400.72C400.85 166.74 400.97 166.16 401.1 165.58C401.65 162.98 402.21 160.38 402.76 157.78C402.76 157.6 402.86 157.53 403.06 157.53C403.74 157.53 404.42 157.53 405.06 157.53L405.35 157.54Z" fill="white"/>
<path d="M351 155.47H336.07C334.966 155.47 334.07 156.366 334.07 157.47V166.94C334.07 168.045 334.966 168.94 336.07 168.94H351C352.105 168.94 353 168.045 353 166.94V157.47C353 156.366 352.105 155.47 351 155.47Z" fill="#FFFE54"/>
<path opacity="0.5" d="M351 155.47H336.07C334.966 155.47 334.07 156.365 334.07 157.47V166.94C334.07 168.044 334.966 168.94 336.07 168.94H351C352.105 168.94 353 168.044 353 166.94V157.47C353 156.365 352.105 155.47 351 155.47Z" fill="white"/>
<path opacity="0.5" d="M352.62 185.33H336.07C334.966 185.33 334.07 186.226 334.07 187.33V191.43C334.07 192.535 334.966 193.43 336.07 193.43H352.62C353.725 193.43 354.62 192.535 354.62 191.43V187.33C354.62 186.226 353.725 185.33 352.62 185.33Z" fill="white"/>
<path opacity="0.5" d="M389.3 185.33H360.3C359.195 185.33 358.3 186.226 358.3 187.33V191.43C358.3 192.535 359.195 193.43 360.3 193.43H389.3C390.404 193.43 391.3 192.535 391.3 191.43V187.33C391.3 186.226 390.404 185.33 389.3 185.33Z" fill="white"/>
<path opacity="0.5" d="M375.52 198.96H336.07C334.966 198.96 334.07 199.855 334.07 200.96V205.06C334.07 206.165 334.966 207.06 336.07 207.06H375.52C376.625 207.06 377.52 206.165 377.52 205.06V200.96C377.52 199.855 376.625 198.96 375.52 198.96Z" fill="white"/>
<path d="M451.7 171.37H354.71C351.396 171.37 348.71 174.056 348.71 177.37V233.59C348.71 236.904 351.396 239.59 354.71 239.59H451.7C455.014 239.59 457.7 236.904 457.7 233.59V177.37C457.7 174.056 455.014 171.37 451.7 171.37Z" fill="#5B81E9"/>
<path d="M431.27 193.22C434.987 193.22 438 190.207 438 186.49C438 182.773 434.987 179.76 431.27 179.76C427.553 179.76 424.54 182.773 424.54 186.49C424.54 190.207 427.553 193.22 431.27 193.22Z" fill="#F97169"/>
<path d="M439.77 193.22C443.487 193.22 446.5 190.207 446.5 186.49C446.5 182.773 443.487 179.76 439.77 179.76C436.053 179.76 433.04 182.773 433.04 186.49C433.04 190.207 436.053 193.22 439.77 193.22Z" fill="#FFC87F"/>
<path d="M376.31 179.76H361.38C360.275 179.76 359.38 180.655 359.38 181.76V191.23C359.38 192.334 360.275 193.23 361.38 193.23H376.31C377.414 193.23 378.31 192.334 378.31 191.23V181.76C378.31 180.655 377.414 179.76 376.31 179.76Z" fill="#FFFE54"/>
<path opacity="0.5" d="M376.31 179.76H361.38C360.275 179.76 359.38 180.655 359.38 181.76V191.23C359.38 192.334 360.275 193.23 361.38 193.23H376.31C377.414 193.23 378.31 192.334 378.31 191.23V181.76C378.31 180.655 377.414 179.76 376.31 179.76Z" fill="white"/>
<path opacity="0.5" d="M377.93 209.62H361.38C360.275 209.62 359.38 210.516 359.38 211.62V215.72C359.38 216.825 360.275 217.72 361.38 217.72H377.93C379.034 217.72 379.93 216.825 379.93 215.72V211.62C379.93 210.516 379.034 209.62 377.93 209.62Z" fill="white"/>
<path opacity="0.5" d="M414.61 209.62H385.61C384.506 209.62 383.61 210.516 383.61 211.62V215.72C383.61 216.825 384.506 217.72 385.61 217.72H414.61C415.715 217.72 416.61 216.825 416.61 215.72V211.62C416.61 210.516 415.715 209.62 414.61 209.62Z" fill="white"/>
<path opacity="0.5" d="M400.83 223.26H361.38C360.275 223.26 359.38 224.155 359.38 225.26V229.36C359.38 230.464 360.275 231.36 361.38 231.36H400.83C401.934 231.36 402.83 230.464 402.83 229.36V225.26C402.83 224.155 401.934 223.26 400.83 223.26Z" fill="white"/>
<path d="M91.39 55.7402L65.52 88.8202H14L46.34 55.7402H91.39Z" fill="#5B81E9"/>
<path d="M65.5195 88.8202L91.3795 55.7402H138.3L116.16 88.8202H65.5195Z" fill="#00CFBE"/>
<path d="M188.94 55.7402L172.5 88.8202H116.16L138.3 55.7402H188.94Z" fill="#5B81E9"/>
<path d="M172.49 88.8202L188.94 55.7402H223.57L225.33 88.8202H172.49Z" fill="#00CFBE"/>
<path d="M257.11 55.7402L276.4 88.8202H225.32L223.57 55.7402H257.11Z" fill="#5B81E9"/>
<path d="M276.4 88.8202L257.11 55.7402H305.34L330.11 88.8202H276.4Z" fill="#00CFBE"/>
<path d="M351.16 55.7402L378.34 88.8202H330.11L305.34 55.7402H351.16Z" fill="#5B81E9"/>
<path d="M378.34 88.8202L351.16 55.7402H399.38L433.8 88.8202H378.34Z" fill="#00CFBE"/>
<path opacity="0.5" d="M91.39 55.7402L65.52 88.8202H14L46.34 55.7402H91.39Z" fill="white"/>
<path opacity="0.5" d="M65.5195 88.8202L91.3795 55.7402H138.3L116.16 88.8202H65.5195Z" fill="white"/>
<path opacity="0.5" d="M188.94 55.7402L172.5 88.8202H116.16L138.3 55.7402H188.94Z" fill="white"/>
<path opacity="0.5" d="M172.49 88.8202L188.94 55.7402H223.57L225.33 88.8202H172.49Z" fill="white"/>
<path opacity="0.5" d="M257.11 55.7402L276.4 88.8202H225.32L223.57 55.7402H257.11Z" fill="white"/>
<path opacity="0.5" d="M276.4 88.8202L257.11 55.7402H305.34L330.11 88.8202H276.4Z" fill="white"/>
<path opacity="0.5" d="M351.16 55.7402L378.34 88.8202H330.11L305.34 55.7402H351.16Z" fill="white"/>
<path opacity="0.5" d="M378.34 88.8202L351.16 55.7402H399.38L433.8 88.8202H378.34Z" fill="white"/>
<path d="M14 88.8203H65.52V112.21C65.52 114.205 64.7277 116.117 63.3174 117.528C61.9072 118.938 59.9944 119.73 58 119.73H21.52C19.5256 119.73 17.6128 118.938 16.2026 117.528C14.7923 116.117 14 114.205 14 112.21V88.8203Z" fill="#5B81E9"/>
<path d="M65.6301 88.8203H116.16V112.35C116.16 114.308 115.383 116.185 113.999 117.569C112.615 118.953 110.737 119.73 108.78 119.73H73.0001C72.031 119.73 71.0713 119.539 70.1759 119.169C69.2805 118.798 68.467 118.254 67.7817 117.569C67.0964 116.883 66.5528 116.07 66.1819 115.175C65.811 114.279 65.6201 113.319 65.6201 112.35V88.8203H65.6301Z" fill="#00CFBE"/>
<path d="M116.16 88.8203H172.5V111.5C172.5 113.683 171.633 115.776 170.09 117.32C168.546 118.863 166.453 119.73 164.27 119.73H124.38C122.198 119.73 120.104 118.863 118.561 117.32C117.017 115.776 116.15 113.683 116.15 111.5V88.8203H116.16Z" fill="#5B81E9"/>
<path d="M172.49 88.8203H225.32V112C225.32 114.045 224.508 116.006 223.062 117.452C221.616 118.898 219.655 119.71 217.61 119.71H180.21C179.197 119.712 178.193 119.513 177.257 119.126C176.32 118.739 175.469 118.172 174.752 117.456C174.035 116.74 173.466 115.889 173.078 114.953C172.69 114.017 172.49 113.014 172.49 112V88.8203Z" fill="#00CFBE"/>
<path d="M225.33 88.8203H276.4V112.27C276.4 114.249 275.614 116.146 274.215 117.545C272.816 118.944 270.919 119.73 268.94 119.73H232.79C230.812 119.73 228.914 118.944 227.515 117.545C226.116 116.146 225.33 114.249 225.33 112.27V88.8203Z" fill="#5B81E9"/>
<path d="M276.4 88.8203H330.11V111.89C330.11 113.97 329.284 115.964 327.814 117.434C326.344 118.904 324.35 119.73 322.27 119.73H284.27C282.191 119.73 280.197 118.904 278.727 117.434C277.256 115.964 276.43 113.97 276.43 111.89V88.8203H276.4Z" fill="#00CFBE"/>
<path d="M330.109 88.8203H378.339V112.69C378.339 114.547 377.602 116.327 376.289 117.64C374.976 118.953 373.196 119.69 371.339 119.69H337.149C335.293 119.69 333.512 118.953 332.2 117.64C330.887 116.327 330.149 114.547 330.149 112.69V88.8203H330.109Z" fill="#5B81E9"/>
<path d="M378.34 88.8203H433.8V111.63C433.8 113.779 432.946 115.839 431.427 117.358C429.908 118.877 427.848 119.73 425.7 119.73H386.44C385.376 119.73 384.323 119.521 383.34 119.114C382.357 118.707 381.464 118.11 380.712 117.358C379.96 116.606 379.363 115.713 378.956 114.73C378.549 113.747 378.34 112.694 378.34 111.63V88.8203Z" fill="#00CFBE"/>
<path d="M14 88.8203H65.52V112.21C65.52 114.205 64.7277 116.117 63.3174 117.528C61.9072 118.938 59.9944 119.73 58 119.73H21.52C19.5256 119.73 17.6128 118.938 16.2026 117.528C14.7923 116.117 14 114.205 14 112.21V88.8203Z" fill="#5B81E9"/>
<path d="M65.6301 88.8203H116.16V112.35C116.16 114.308 115.383 116.185 113.999 117.569C112.615 118.953 110.737 119.73 108.78 119.73H73.0001C72.031 119.73 71.0713 119.539 70.1759 119.169C69.2805 118.798 68.467 118.254 67.7817 117.569C67.0964 116.883 66.5528 116.07 66.1819 115.175C65.811 114.279 65.6201 113.319 65.6201 112.35V88.8203H65.6301Z" fill="#00CFBE"/>
<path d="M116.16 88.8203H172.5V111.5C172.5 113.683 171.633 115.776 170.09 117.32C168.546 118.863 166.453 119.73 164.27 119.73H124.38C122.198 119.73 120.104 118.863 118.561 117.32C117.017 115.776 116.15 113.683 116.15 111.5V88.8203H116.16Z" fill="#5B81E9"/>
<path d="M172.49 88.8203H225.32V112C225.32 114.045 224.508 116.006 223.062 117.452C221.616 118.898 219.655 119.71 217.61 119.71H180.21C179.197 119.712 178.193 119.513 177.257 119.126C176.32 118.739 175.469 118.172 174.752 117.456C174.035 116.74 173.466 115.889 173.078 114.953C172.69 114.017 172.49 113.014 172.49 112V88.8203Z" fill="#00CFBE"/>
<path d="M225.33 88.8203H276.4V112.27C276.4 114.249 275.614 116.146 274.215 117.545C272.816 118.944 270.919 119.73 268.94 119.73H232.79C230.812 119.73 228.914 118.944 227.515 117.545C226.116 116.146 225.33 114.249 225.33 112.27V88.8203Z" fill="#5B81E9"/>
<path d="M276.4 88.8203H330.11V111.89C330.11 113.97 329.284 115.964 327.814 117.434C326.344 118.904 324.35 119.73 322.27 119.73H284.27C282.191 119.73 280.197 118.904 278.727 117.434C277.256 115.964 276.43 113.97 276.43 111.89V88.8203H276.4Z" fill="#00CFBE"/>
<path d="M330.109 88.8203H378.339V112.69C378.339 114.547 377.602 116.327 376.289 117.64C374.976 118.953 373.196 119.69 371.339 119.69H337.149C335.293 119.69 333.512 118.953 332.2 117.64C330.887 116.327 330.149 114.547 330.149 112.69V88.8203H330.109Z" fill="#5B81E9"/>
<path d="M378.34 88.8203H433.8V111.63C433.8 113.779 432.946 115.839 431.427 117.358C429.908 118.877 427.848 119.73 425.7 119.73H386.44C385.376 119.73 384.323 119.521 383.34 119.114C382.357 118.707 381.464 118.11 380.712 117.358C379.96 116.606 379.363 115.713 378.956 114.73C378.549 113.747 378.34 112.694 378.34 111.63V88.8203Z" fill="#00CFBE"/>
<path d="M157.48 125.12H71.1699V224.45H157.48V125.12Z" fill="#F9F9F9"/>
<path opacity="0.2" d="M151.16 132.39H77.4805V217.19H151.16V132.39Z" fill="#FD5C39"/>
<path d="M96.4805 164.34V202.34H131.77V164.34L136.711 169.27L145.711 162.27L137.84 153.5C136.07 151.523 133.903 149.942 131.481 148.86C129.058 147.778 126.434 147.219 123.78 147.22C123.097 149.205 121.818 150.93 120.117 152.16C118.417 153.391 116.379 154.067 114.28 154.097C112.182 154.126 110.125 153.508 108.391 152.325C106.657 151.143 105.33 149.455 104.59 147.49L104.49 147.22H104.15C101.382 147.22 98.6477 147.829 96.1404 149.002C93.6331 150.175 91.4142 151.885 89.6404 154.01L82.9805 162.01L91.5405 169.01L96.4805 164.34Z" fill="white"/>
<path d="M142.84 159.12L133.74 166.3L136.71 169.27L145.66 162.27L142.84 159.12Z" fill="#FD5C39"/>
<path d="M85.6802 158.78L94.7902 165.95L91.5502 169.01L82.9902 162L85.6802 158.78Z" fill="#FD5C39"/>
<path d="M115.07 164.98L117.51 169.93C117.572 170.05 117.661 170.153 117.771 170.231C117.88 170.309 118.007 170.36 118.14 170.38L123.6 171.18C123.754 171.202 123.899 171.266 124.018 171.367C124.137 171.467 124.226 171.598 124.274 171.746C124.322 171.894 124.327 172.053 124.289 172.204C124.252 172.355 124.172 172.492 124.06 172.6L120.06 176.45C119.962 176.542 119.888 176.657 119.847 176.785C119.805 176.912 119.795 177.048 119.82 177.18L120.75 182.62C120.778 182.774 120.762 182.933 120.704 183.078C120.646 183.223 120.548 183.349 120.422 183.441C120.295 183.533 120.145 183.587 119.989 183.598C119.833 183.608 119.678 183.574 119.54 183.5L114.66 180.93C114.54 180.866 114.406 180.833 114.27 180.833C114.134 180.833 114 180.866 113.88 180.93L109 183.5C108.862 183.57 108.707 183.601 108.553 183.589C108.399 183.576 108.251 183.522 108.126 183.431C108 183.339 107.903 183.216 107.843 183.073C107.784 182.93 107.766 182.773 107.79 182.62L108.73 177.18C108.75 177.048 108.739 176.913 108.697 176.787C108.655 176.66 108.584 176.544 108.49 176.45L104.49 172.6C104.378 172.492 104.298 172.355 104.26 172.204C104.222 172.053 104.228 171.894 104.276 171.746C104.324 171.598 104.412 171.467 104.532 171.367C104.651 171.266 104.796 171.202 104.95 171.18L110.41 170.38C110.542 170.361 110.667 170.309 110.775 170.231C110.883 170.153 110.97 170.049 111.03 169.93L113.48 164.98C113.531 164.809 113.636 164.659 113.779 164.553C113.923 164.446 114.096 164.389 114.275 164.389C114.453 164.389 114.627 164.446 114.77 164.553C114.914 164.659 115.019 164.809 115.07 164.98Z" fill="#FD5C39"/>
<path d="M267.36 125.12H181.05V224.45H267.36V125.12Z" fill="#F9F9F9"/>
<path opacity="0.2" d="M261.04 132.39H187.36V217.19H261.04V132.39Z" fill="#5B81E9"/>
<path d="M206.35 164.34V202.34H241.65V164.34L246.58 169.27L255.58 162.27L247.72 153.5C245.948 151.523 243.779 149.942 241.355 148.86C238.931 147.777 236.305 147.219 233.65 147.22C232.969 149.206 231.691 150.932 229.992 152.164C228.292 153.396 226.254 154.073 224.155 154.102C222.056 154.132 220 153.512 218.266 152.329C216.533 151.146 215.207 149.456 214.47 147.49L214.37 147.22H214.08C211.312 147.221 208.578 147.829 206.071 149.003C203.563 150.176 201.344 151.885 199.57 154.01L192.91 162.01L201.47 169.01L206.35 164.34Z" fill="white"/>
<path d="M252.72 159.12L243.61 166.3L246.58 169.27L255.54 162.27L252.72 159.12Z" fill="white"/>
<path d="M252.72 159.12L243.61 166.3L246.58 169.27L255.54 162.27L252.72 159.12Z" fill="#5B81E9"/>
<path d="M195.56 158.78L204.66 165.95L201.43 169.01L192.86 162L195.56 158.78Z" fill="white"/>
<path d="M195.56 158.78L192.86 162L201.43 169.01L204.66 165.95L195.56 158.78Z" fill="#5B81E9"/>
<path d="M225.75 178.72C225.271 178.471 224.74 178.341 224.2 178.34C223.66 178.339 223.128 178.469 222.65 178.72L220.75 179.72L221.11 177.62C221.196 177.084 221.15 176.535 220.976 176.021C220.802 175.507 220.505 175.043 220.11 174.67L218.58 173.17L220.69 172.87C221.226 172.793 221.735 172.586 222.172 172.267C222.61 171.948 222.963 171.526 223.2 171.04L224.2 169.13L225.14 171.04C225.38 171.524 225.734 171.944 226.171 172.262C226.608 172.581 227.115 172.789 227.65 172.87L229.77 173.17L228.24 174.67C227.844 175.042 227.546 175.505 227.371 176.02C227.197 176.534 227.152 177.084 227.24 177.62L227.6 179.72L225.75 178.72Z" fill="white"/>
<path d="M224.2 173.86C224.501 174.156 224.837 174.415 225.2 174.63C225.023 175.028 224.889 175.444 224.8 175.87H224.15C223.93 175.87 223.71 175.87 223.49 175.87C223.405 175.443 223.271 175.027 223.09 174.63C223.472 174.416 223.828 174.157 224.15 173.86H224.2ZM224.15 164.52C223.994 164.518 223.841 164.56 223.708 164.641C223.575 164.722 223.468 164.84 223.4 164.98L220.96 169.93C220.898 170.05 220.809 170.153 220.699 170.231C220.589 170.309 220.463 170.36 220.33 170.38L214.87 171.18C214.716 171.202 214.571 171.266 214.452 171.366C214.332 171.467 214.244 171.598 214.196 171.746C214.148 171.894 214.142 172.053 214.18 172.204C214.218 172.355 214.298 172.492 214.41 172.6L218.41 176.45C218.508 176.542 218.581 176.657 218.623 176.784C218.665 176.912 218.674 177.048 218.65 177.18L217.72 182.62C217.696 182.741 217.7 182.866 217.73 182.986C217.76 183.106 217.817 183.217 217.895 183.313C217.973 183.408 218.072 183.485 218.183 183.538C218.294 183.592 218.416 183.619 218.54 183.62C218.675 183.615 218.809 183.581 218.93 183.52L223.81 180.95C223.931 180.89 224.065 180.859 224.2 180.86C224.332 180.86 224.462 180.891 224.58 180.95L229.47 183.52C229.587 183.581 229.717 183.615 229.85 183.62C229.974 183.621 230.097 183.595 230.209 183.542C230.321 183.489 230.42 183.412 230.499 183.316C230.578 183.221 230.634 183.108 230.664 182.988C230.693 182.867 230.695 182.742 230.67 182.62L229.74 177.18C229.72 177.048 229.731 176.913 229.773 176.786C229.814 176.66 229.885 176.544 229.98 176.45L233.98 172.6C234.092 172.492 234.171 172.355 234.209 172.204C234.247 172.053 234.242 171.894 234.194 171.746C234.146 171.598 234.057 171.467 233.938 171.366C233.819 171.266 233.674 171.202 233.52 171.18L228.06 170.38C227.927 170.36 227.801 170.308 227.691 170.23C227.582 170.152 227.492 170.049 227.43 169.93L224.99 164.98C224.923 164.841 224.818 164.724 224.687 164.642C224.556 164.561 224.404 164.518 224.25 164.52H224.15Z" fill="#5B81E9"/>
<path d="M93.1502 222.64L87.4202 206.97C86.9321 205.633 85.9491 204.535 84.6742 203.902C83.3994 203.269 81.9301 203.15 80.5701 203.57L64.6201 208.5C63.9008 208.721 63.2343 209.087 62.6617 209.576C62.089 210.064 61.6223 210.665 61.2902 211.34L42.7601 248.71C42.1054 250.031 42.002 251.558 42.4727 252.955C42.9434 254.352 43.9496 255.505 45.2701 256.16L66.9401 266.9C68.261 267.555 69.7878 267.658 71.1848 267.188C72.5819 266.717 73.7348 265.711 74.3901 264.39L92.9102 227.02C93.2474 226.345 93.4426 225.608 93.4839 224.855C93.5252 224.102 93.4116 223.348 93.1502 222.64ZM76.9002 219.58C76.4718 219.37 76.1156 219.037 75.8765 218.624C75.6375 218.211 75.5264 217.736 75.5574 217.26C75.5884 216.784 75.7601 216.328 76.0507 215.949C76.3412 215.571 76.7376 215.287 77.1896 215.134C77.6416 214.981 78.1288 214.966 78.5895 215.09C79.0503 215.214 79.4638 215.472 79.7777 215.832C80.0915 216.191 80.2916 216.636 80.3526 217.109C80.4136 217.582 80.3326 218.063 80.1201 218.49C79.9797 218.776 79.7839 219.032 79.5441 219.242C79.3042 219.452 79.025 219.612 78.7227 219.714C78.4204 219.815 78.1011 219.855 77.7831 219.832C77.4651 219.81 77.1547 219.724 76.8701 219.58H76.9002Z" fill="#FD5C39"/>
<path opacity="0.6" d="M93.1502 222.64L87.4202 206.97C86.9321 205.633 85.9491 204.535 84.6742 203.902C83.3994 203.269 81.9301 203.15 80.5701 203.57L64.6201 208.5C63.9008 208.721 63.2343 209.087 62.6617 209.576C62.089 210.064 61.6223 210.665 61.2902 211.34L42.7601 248.71C42.1054 250.031 42.002 251.558 42.4727 252.955C42.9434 254.352 43.9496 255.505 45.2701 256.16L66.9401 266.9C68.261 267.555 69.7878 267.658 71.1848 267.188C72.5819 266.717 73.7348 265.711 74.3901 264.39L92.9102 227.02C93.2474 226.345 93.4426 225.608 93.4839 224.855C93.5252 224.102 93.4116 223.348 93.1502 222.64ZM76.9002 219.58C76.4718 219.37 76.1156 219.037 75.8765 218.624C75.6375 218.211 75.5264 217.736 75.5574 217.26C75.5884 216.784 75.7601 216.328 76.0507 215.949C76.3412 215.571 76.7376 215.287 77.1896 215.134C77.6416 214.981 78.1288 214.966 78.5895 215.09C79.0503 215.214 79.4638 215.472 79.7777 215.832C80.0915 216.191 80.2916 216.636 80.3526 217.109C80.4136 217.582 80.3326 218.063 80.1201 218.49C79.9797 218.776 79.7839 219.032 79.5441 219.242C79.3042 219.452 79.025 219.612 78.7227 219.714C78.4204 219.815 78.1011 219.855 77.7831 219.832C77.4651 219.81 77.1547 219.724 76.8701 219.58H76.9002Z" fill="white"/>
<path d="M79.0102 215.27C79.4371 215.483 79.7913 215.817 80.028 216.231C80.2647 216.645 80.3734 217.119 80.3402 217.595C80.307 218.071 80.1335 218.526 79.8415 218.903C79.5496 219.28 79.1524 219.562 78.7002 219.713C78.2481 219.864 77.7612 219.878 77.3013 219.752C76.8413 219.627 76.4289 219.367 76.1163 219.007C75.8037 218.647 75.6049 218.203 75.5451 217.73C75.4853 217.257 75.5671 216.777 75.7803 216.35C75.9206 216.066 76.1157 215.813 76.3543 215.605C76.5929 215.397 76.8703 215.238 77.1705 215.138C77.4707 215.037 77.7878 214.997 78.1036 215.02C78.4193 215.043 78.7275 215.128 79.0102 215.27ZM79.4402 214.39C78.8411 214.094 78.1676 213.982 77.5048 214.068C76.842 214.154 76.2196 214.435 75.7165 214.875C75.2133 215.315 74.8519 215.895 74.678 216.54C74.504 217.185 74.5254 217.868 74.7392 218.501C74.9531 219.134 75.35 219.69 75.8796 220.098C76.4093 220.506 77.0479 220.747 77.7148 220.792C78.3817 220.837 79.047 220.683 79.6265 220.35C80.2059 220.016 80.6735 219.519 80.9703 218.92C81.1674 218.522 81.2842 218.089 81.314 217.646C81.3437 217.203 81.2859 216.759 81.1439 216.338C81.0018 215.917 80.7781 215.529 80.4858 215.194C80.1935 214.86 79.8382 214.587 79.4402 214.39Z" fill="white"/>
<path d="M68.4904 247.24C69.6916 247.074 70.8143 246.547 71.7103 245.73L75.8403 247.73C74.4021 249.545 72.3755 250.8 70.1104 251.28C67.7175 251.712 65.2489 251.317 63.1104 250.16C60.9605 249.198 59.2165 247.512 58.1822 245.396C57.1479 243.28 56.8889 240.868 57.4503 238.58L55.0703 237.4L55.9803 235.57L58.0803 236.62C58.2803 236.12 58.4403 235.75 58.5603 235.51C58.7803 235.07 58.9503 234.737 59.0703 234.51L56.9904 233.51L57.9103 231.66L60.2703 232.82C61.7253 230.975 63.7751 229.692 66.0703 229.19C68.4235 228.722 70.8659 229.075 72.9904 230.19C75.2067 231.189 77.0161 232.914 78.1203 235.08C79.1071 237.174 79.3368 239.546 78.7703 241.79L74.6403 239.74C74.7461 238.534 74.4846 237.325 73.8903 236.27C73.2452 235.168 72.2788 234.288 71.1203 233.75C70.0495 233.198 68.8314 232.998 67.6403 233.18C66.424 233.393 65.303 233.976 64.4304 234.85L70.0203 237.63L69.1003 239.49L63.1003 236.49C62.8603 236.88 62.6803 237.2 62.5603 237.44C62.4403 237.68 62.2803 238.05 62.0803 238.55L68.0803 241.55L67.1703 243.38L61.6003 240.61C61.4672 241.807 61.6971 243.016 62.2603 244.08C62.8343 245.127 63.7229 245.966 64.8004 246.48C65.9245 247.103 67.2117 247.368 68.4904 247.24Z" fill="#FD5C39"/>
<path d="M11.0752 172.501L0 160.565L11.0752 148.516H22.6893L11.6141 160.565L22.6893 172.501H11.0752Z" fill="#FFFE54"/>
<path d="M46.5353 128L31.9394 189.8H22.9854L37.5813 128.035L46.5353 128Z" fill="#FFFE54"/>
<path d="M46.5352 148.516H58.1493L69.2244 160.565L58.1493 172.501H46.5352L57.6103 160.565L46.5352 148.516Z" fill="#FFFE54"/>
<path d="M373.49 274.3C375.133 272.937 377.228 272.241 379.36 272.35C381.557 272.392 383.747 272.609 385.91 273C388.358 273.431 390.835 273.672 393.32 273.72C396.148 273.741 398.96 273.291 401.64 272.39C404.013 271.608 406.223 270.398 408.16 268.82C409.776 267.537 411.058 265.884 411.9 264H412.84V275.52C412.059 277.004 411.046 278.355 409.84 279.52C408.067 281.185 405.989 282.492 403.72 283.37C400.662 284.57 397.394 285.145 394.11 285.06C391.622 285.004 389.142 284.763 386.69 284.34C384.505 283.932 382.292 283.691 380.07 283.62C378.21 283.585 376.393 284.184 374.92 285.32C373.45 286.44 372.67 288.32 372.58 290.82H368.26C368.21 288.28 367.44 286.44 365.95 285.32C364.464 284.187 362.639 283.588 360.77 283.62C358.548 283.69 356.335 283.931 354.15 284.34C351.698 284.762 349.218 285.003 346.73 285.06C343.446 285.145 340.178 284.571 337.12 283.37C334.849 282.497 332.77 281.189 331 279.52C329.791 278.357 328.778 277.007 328 275.52V264.04H329.01C329.848 265.926 331.132 267.58 332.75 268.86C334.687 270.438 336.897 271.648 339.27 272.43C341.947 273.331 344.755 273.78 347.58 273.76C350.114 273.709 352.641 273.468 355.14 273.04C357.278 272.643 359.446 272.426 361.62 272.39C366.473 272.39 369.403 275.057 370.41 280.39H370.55C370.825 278.089 371.86 275.946 373.49 274.3Z" fill="#FFFE54"/>
</svg>
