<svg width="377" height="377" viewBox="0 0 377 377" fill="none" xmlns="http://www.w3.org/2000/svg">
<g opacity="0.5">
<path d="M365.424 26.1309H100.013V28.9045H365.424V26.1309Z" fill="white"/>
<path d="M365.424 57.8213H100.013V60.595H365.424V57.8213Z" fill="white"/>
<path d="M365.424 89.5239H100.013V92.2976H365.424V89.5239Z" fill="white"/>
<path d="M365.424 121.214H100.013V123.988H365.424V121.214Z" fill="white"/>
<path d="M365.424 152.905H100.013V155.678H365.424V152.905Z" fill="white"/>
<path d="M365.424 184.607H100.013V187.381H365.424V184.607Z" fill="white"/>
<path d="M365.424 216.298H100.013V219.071H365.424V216.298Z" fill="white"/>
<path d="M365.424 248H100.013V250.774H365.424V248Z" fill="white"/>
<path d="M344.051 0H341.276V272.866H344.051V0Z" fill="white"/>
<path d="M312.333 0H309.558V272.866H312.333V0Z" fill="white"/>
<path d="M280.626 0H277.851V272.866H280.626V0Z" fill="white"/>
<path d="M248.919 0H246.144V272.866H248.919V0Z" fill="white"/>
<path d="M217.2 0H214.425V272.866H217.2V0Z" fill="white"/>
<path d="M185.494 0H182.719V272.866H185.494V0Z" fill="white"/>
<path d="M153.787 0H151.012V272.866H153.787V0Z" fill="white"/>
<path d="M122.067 0H119.292V272.866H122.067V0Z" fill="white"/>
</g>
<path d="M255.918 71.1179H61.3684C54.2026 71.1179 48.3936 76.9239 48.3936 84.086V326.101C48.3936 333.263 54.2026 339.069 61.3684 339.069H255.918C263.083 339.069 268.892 333.263 268.892 326.101V84.086C268.892 76.9239 263.083 71.1179 255.918 71.1179Z" fill="#5B81E9"/>
<path d="M255.918 71.1179H61.3684C54.2026 71.1179 48.3936 76.9239 48.3936 84.086V326.101C48.3936 333.263 54.2026 339.069 61.3684 339.069H255.918C263.083 339.069 268.892 333.263 268.892 326.101V84.086C268.892 76.9239 263.083 71.1179 255.918 71.1179Z" fill="#5B81E9"/>
<path d="M61.3684 71.1179H255.918C259.359 71.1179 262.659 72.4842 265.092 74.9162C267.525 77.3482 268.892 80.6467 268.892 84.086V89.0494H48.3936V84.086C48.3936 80.6467 49.7605 77.3482 52.1938 74.9162C54.627 72.4842 57.9272 71.1179 61.3684 71.1179Z" fill="#5B81E9"/>
<path opacity="0.7" d="M61.3684 71.1179H255.918C259.359 71.1179 262.659 72.4842 265.092 74.9162C267.525 77.3482 268.892 80.6467 268.892 84.086V89.0494H48.3936V84.086C48.3936 80.6467 49.7605 77.3482 52.1938 74.9162C54.627 72.4842 57.9272 71.1179 61.3684 71.1179Z" fill="#1D1E26"/>
<path d="M59.7136 84.1832C61.8849 84.1832 63.645 82.424 63.645 80.2538C63.645 78.0837 61.8849 76.3245 59.7136 76.3245C57.5424 76.3245 55.7822 78.0837 55.7822 80.2538C55.7822 82.424 57.5424 84.1832 59.7136 84.1832Z" fill="#FD5C39"/>
<path d="M70.656 84.1832C72.8273 84.1832 74.5874 82.424 74.5874 80.2538C74.5874 78.0837 72.8273 76.3245 70.656 76.3245C68.4848 76.3245 66.7246 78.0837 66.7246 80.2538C66.7246 82.424 68.4848 84.1832 70.656 84.1832Z" fill="#FFFE54"/>
<path d="M81.6101 84.1832C83.7814 84.1832 85.5415 82.424 85.5415 80.2538C85.5415 78.0837 83.7814 76.3245 81.6101 76.3245C79.4389 76.3245 77.6787 78.0837 77.6787 80.2538C77.6787 82.424 79.4389 84.1832 81.6101 84.1832Z" fill="#00CFBE"/>
<path d="M239.718 101.981H77.5568C75.4662 101.981 73.7715 103.675 73.7715 105.764V175.143C73.7715 177.232 75.4662 178.926 77.5568 178.926H239.718C241.808 178.926 243.503 177.232 243.503 175.143V105.764C243.503 103.675 241.808 101.981 239.718 101.981Z" fill="white"/>
<path opacity="0.5" d="M157.621 107.614H84.4699C82.3793 107.614 80.6846 109.307 80.6846 111.397V169.522C80.6846 171.612 82.3793 173.306 84.4699 173.306H157.621C159.711 173.306 161.406 171.612 161.406 169.522V111.397C161.406 109.307 159.711 107.614 157.621 107.614Z" fill="#5B81E9"/>
<path d="M134.324 132.686C138.183 132.686 141.311 129.56 141.311 125.703C141.311 121.847 138.183 118.72 134.324 118.72C130.466 118.72 127.338 121.847 127.338 125.703C127.338 129.56 130.466 132.686 134.324 132.686Z" fill="#5B81E9"/>
<path d="M84.4697 173.306L109.373 136.433L126.851 160.021L138.085 148.598L157.633 173.306H84.4697Z" fill="#5B81E9"/>
<path d="M229.993 112.601H165.532V113.599H229.993V112.601Z" fill="#5B81E9"/>
<path d="M191.798 123.538H165.532V124.535H191.798V123.538Z" fill="#5B81E9"/>
<path d="M204.019 145.447H165.532V146.445H204.019V145.447Z" fill="#5B81E9"/>
<path d="M239.085 145.447H210.701V146.445H239.085V145.447Z" fill="#5B81E9"/>
<path d="M239.085 123.538H197.763V124.535H239.085V123.538Z" fill="#5B81E9"/>
<path d="M239.072 134.487H165.532V135.484H239.072V134.487Z" fill="#5B81E9"/>
<path d="M239.072 156.372H165.532V157.369H239.072V156.372Z" fill="#5B81E9"/>
<path d="M210.701 167.308H165.532V168.306H210.701V167.308Z" fill="#5B81E9"/>
<path d="M109.677 186.712H80.1615C76.6324 186.712 73.7715 189.571 73.7715 193.098V222.599C73.7715 226.126 76.6324 228.986 80.1615 228.986H109.677C113.207 228.986 116.067 226.126 116.067 222.599V193.098C116.067 189.571 113.207 186.712 109.677 186.712Z" fill="white"/>
<path d="M237.186 229.582H229.652V228.365H237.113L237.186 229.582ZM222.179 229.582H214.705V228.365H222.179V229.582ZM207.244 229.582H199.771V228.365H207.244V229.582ZM192.31 229.582H184.837V228.365H192.31V229.582ZM177.363 229.582H169.902V228.365H177.363V229.582ZM162.429 229.582H154.98V228.365H162.453L162.429 229.582ZM147.494 229.582H140.021V228.365H147.494V229.582ZM132.56 229.582H129.834C128.08 229.587 126.389 228.931 125.099 227.745L125.927 226.845C126.991 227.825 128.386 228.369 129.834 228.365H132.56V229.582ZM243.588 225.263L242.469 224.789C242.761 224.092 242.91 223.343 242.907 222.587V217.623H244.124V222.587C244.124 223.506 243.942 224.415 243.588 225.263ZM124.052 220.397H122.835V212.928H124.052V220.397ZM244.124 210.13H242.907V202.672H244.124V210.13ZM124.052 205.47H122.835V198.001H124.052V205.47ZM244.124 195.215H242.907V193.086C242.906 192.28 242.737 191.482 242.41 190.745C242.083 190.007 241.605 189.346 241.008 188.804L241.824 187.904C242.547 188.56 243.125 189.36 243.522 190.252C243.918 191.145 244.123 192.11 244.124 193.086V195.215ZM124.551 190.86L123.334 190.349C123.867 189.084 124.76 188.003 125.903 187.242C127.045 186.48 128.387 186.072 129.761 186.067V187.283C128.637 187.305 127.545 187.656 126.62 188.291C125.694 188.927 124.975 189.82 124.551 190.86ZM234.411 187.32H226.938V186.103H234.411V187.32ZM219.465 187.32H212.003V186.103H219.465V187.32ZM204.53 187.32H197.069V186.103H204.53V187.32ZM189.596 187.32H182.122V186.103H189.596V187.32ZM174.661 187.32H167.151V186.103H174.625L174.661 187.32ZM159.715 187.32H152.253V186.103H159.715V187.32ZM144.78 187.32H137.319V186.103H144.78V187.32Z" fill="white"/>
<path d="M83.9586 213.816L78.7979 208.256L83.9586 202.636H89.3749L84.2141 208.256L89.3749 213.816H83.9586Z" fill="#00CFBE"/>
<path d="M100.476 193.086L93.6719 221.845H89.4971L96.3009 193.086H100.476Z" fill="#00CFBE"/>
<path d="M100.476 202.636H105.88L111.04 208.256L105.88 213.816H100.476L105.636 208.256L100.476 202.636Z" fill="#00CFBE"/>
<path d="M232.001 305.335H84.385C80.9438 305.335 77.6436 303.969 75.2104 301.537C72.7771 299.105 71.4102 295.806 71.4102 292.367L71.751 246.978C71.751 239.813 77.2281 236.76 84.385 236.76H232.001C239.158 236.76 244.598 239.825 244.598 246.99L244.976 292.367C244.976 295.806 243.609 299.105 241.175 301.537C238.742 303.969 235.442 305.335 232.001 305.335Z" fill="#5B81E9"/>
<path d="M232.001 305.335H84.385C80.9438 305.335 77.6436 303.969 75.2104 301.537C72.7771 299.105 71.4102 295.806 71.4102 292.367L71.751 246.978C71.751 239.813 77.2281 236.76 84.385 236.76H232.001C239.158 236.76 244.598 239.825 244.598 246.99L244.976 292.367C244.976 295.806 243.609 299.105 241.175 301.537C238.742 303.969 235.442 305.335 232.001 305.335Z" fill="white"/>
<path d="M244.611 246.99L71.7754 246.905V246.978C71.7754 239.813 77.2526 236.76 84.4094 236.76H232.001C239.158 236.76 244.599 239.825 244.599 246.99H244.611Z" fill="#5B81E9"/>
<path opacity="0.7" d="M244.611 246.881H71.7754V246.954C71.7754 239.789 77.2526 236.735 84.4094 236.735H232.001C239.158 236.735 244.599 239.801 244.599 246.966L244.611 246.881Z" fill="#1D1E26"/>
<path d="M81.8046 244.509C82.8331 244.509 83.6669 243.675 83.6669 242.647C83.6669 241.619 82.8331 240.786 81.8046 240.786C80.7761 240.786 79.9424 241.619 79.9424 242.647C79.9424 243.675 80.7761 244.509 81.8046 244.509Z" fill="#FD5C39"/>
<path d="M87.0019 244.509C88.0304 244.509 88.8641 243.675 88.8641 242.647C88.8641 241.619 88.0304 240.786 87.0019 240.786C85.9734 240.786 85.1396 241.619 85.1396 242.647C85.1396 243.675 85.9734 244.509 87.0019 244.509Z" fill="#FFFE54"/>
<path d="M92.1865 244.509C93.2149 244.509 94.0487 243.675 94.0487 242.647C94.0487 241.619 93.2149 240.786 92.1865 240.786C91.158 240.786 90.3242 241.619 90.3242 242.647C90.3242 243.675 91.158 244.509 92.1865 244.509Z" fill="#00CFBE"/>
<path d="M308.055 93H206.995C202.027 93 198 97.025 198 101.99C198 106.955 202.027 110.98 206.995 110.98H308.055C313.022 110.98 317.049 106.955 317.049 101.99C317.049 97.025 313.022 93 308.055 93Z" fill="#FD5C39"/>
<path d="M304.744 105.007C306.989 105.007 308.809 103.188 308.809 100.944C308.809 98.6998 306.989 96.8806 304.744 96.8806C302.499 96.8806 300.679 98.6998 300.679 100.944C300.679 103.188 302.499 105.007 304.744 105.007Z" fill="#FD5C39"/>
<path d="M307.154 104.216L310.026 107.099M308.809 100.944C308.809 103.188 306.989 105.007 304.744 105.007C302.499 105.007 300.679 103.188 300.679 100.944C300.679 98.6998 302.499 96.8806 304.744 96.8806C306.989 96.8806 308.809 98.6998 308.809 100.944Z" stroke="white" stroke-miterlimit="10"/>
<path d="M30.9278 185.313H5.0877C3.73935 185.31 2.44714 184.773 1.49371 183.82C0.540279 182.867 0.0032142 181.575 0 180.228V154.401C0 153.052 0.536017 151.759 1.49014 150.805C2.44427 149.852 3.73836 149.316 5.0877 149.316H30.9278C31.5959 149.316 32.2575 149.447 32.8747 149.703C33.492 149.959 34.0529 150.333 34.5253 150.805C34.9978 151.278 35.3725 151.838 35.6282 152.455C35.8839 153.072 36.0155 153.733 36.0155 154.401V180.228C36.0155 181.576 35.4794 182.87 34.5253 183.823C33.5712 184.777 32.2771 185.313 30.9278 185.313ZM5.0877 151.749C4.38397 151.749 3.70906 152.028 3.21145 152.526C2.71385 153.023 2.4343 153.698 2.4343 154.401V180.228C2.4375 180.93 2.71809 181.603 3.215 182.099C3.71192 182.596 4.38496 182.877 5.0877 182.88H30.9278C31.6305 182.877 32.3036 182.596 32.8005 182.099C33.2974 181.603 33.578 180.93 33.5812 180.228V154.401C33.5812 153.698 33.3016 153.023 32.804 152.526C32.3064 152.028 31.6315 151.749 30.9278 151.749H5.0877Z" fill="#FD5C39"/>
<path d="M22.9191 165.933L22.3227 168.658H24.8909V171.213H21.7871L21.0447 174.68H18.44L19.1702 171.213H15.5188L14.7885 174.68H12.1716L12.9141 171.213H9.91992V168.658H13.4496L14.0461 165.933H11.1371V163.391H14.5816L15.3241 159.936H17.9288L17.1985 163.391H20.8499L21.5924 159.936H24.1971L23.4546 163.391H26.108V165.933H22.9191ZM20.3144 165.933H16.6629L16.0543 168.658H19.7058L20.3144 165.933Z" fill="#FD5C39"/>
<path d="M60.5937 353.874C61.6975 352.967 63.1005 352.504 64.528 352.576C66.006 352.6 67.4794 352.746 68.9334 353.012C70.5794 353.296 72.2445 353.456 73.9146 353.491C75.8115 353.517 77.6991 353.222 79.4977 352.62C81.0863 352.099 82.565 351.289 83.8595 350.232C84.9442 349.371 85.8059 348.263 86.3719 347H87V354.728C86.4776 355.715 85.8002 356.612 84.9936 357.385C83.8047 358.512 82.4097 359.399 80.8848 359.999C78.8305 360.804 76.6353 361.189 74.4293 361.132C72.7593 361.095 71.0943 360.935 69.4481 360.652C67.9796 360.379 66.4922 360.219 64.9991 360.173C63.7405 360.141 62.5089 360.541 61.5096 361.306C60.988 361.765 60.5761 362.335 60.3043 362.975C60.0326 363.614 59.9079 364.306 59.9394 365H57.0432C57.0914 364.306 56.976 363.61 56.7063 362.969C56.4367 362.327 56.0202 361.758 55.4904 361.306C54.4885 360.546 53.2587 360.147 52.0009 360.173C50.5078 360.219 49.0204 360.379 47.5519 360.652C45.9056 360.935 44.2407 361.095 42.5707 361.132C40.3647 361.189 38.1695 360.804 36.1152 359.999C34.5903 359.399 33.1953 358.512 32.0064 357.385C31.1998 356.612 30.5224 355.715 30 354.728V347H30.6281C31.1912 348.265 32.0533 349.374 33.1405 350.232C34.435 351.289 35.9137 352.099 37.5023 352.62C39.3009 353.222 41.1885 353.517 43.0854 353.491C44.7872 353.454 46.484 353.294 48.1625 353.012C49.6012 352.741 51.0605 352.595 52.5243 352.576C55.7753 352.576 57.7411 354.362 58.4215 357.934H58.5175C58.7388 356.388 59.4693 354.96 60.5937 353.874Z" fill="#00CFBE"/>
<path d="M251.601 335.548L244 327.348L251.601 319.08H259.609L251.958 327.348L259.609 335.548H251.601Z" fill="#FFFE54"/>
<path d="M275.941 305L265.917 347.393H259.771L269.811 305H275.941Z" fill="#FFFE54"/>
<path d="M275.941 319.114H283.916L291.568 327.382L283.916 335.582H275.941L283.593 327.382L275.941 319.114Z" fill="#FFFE54"/>
</svg>
